  0
SECTION
  2
HEADER
  9
$MEASUREMENT
  70
  1
  9
$INSUNITS
  70
  4
  0
ENDSEC
  0
SECTION
  2
TABLES
  0
TABLE
  2
LTYPE
 70
     1
  0
LTYPE
  2
CONTINUOUS
 70
    64
  3
Ausgezogene Linie
 72
    65
 73
     0
 40
0.0
  0
ENDTAB
  0
TABLE
  2
LAYER
 70
     3
  0
LAYER
  2
Contour
 70
    64
 62
     7
  6
CONTINUOUS
  0
LAYER
  2
Engraving
 70
    64
 62
     7
  6
CONTINUOUS
  0
LAYER
  2
Reference_points
 70
    64
 62
     1
  6
CONTINUOUS
  0
ENDTAB
  0
TABLE
  2
STYLE
 70
     1
  0
STYLE
  2
TXT
 70
    64
 40
0.0
 41
1.0
 50
0.0
 71
     0
 42
3.500000
  3
TXT
  0
ENDTAB
  0
ENDSEC
  0
SECTION
  2
BLOCKS
  0
ENDSEC
  0
SECTION
  2
ENTITIES
  0
LINE
  8
Contour
 62
   7
 39
0.100
  6
CONTINUOUS
 10
105.50000
 20
29.50000
 30
 0
 11
3.00000
 21
29.50000
  0
ARC
  8
Contour
 62
   7
 39
0.100
  6
CONTINUOUS
 10
3.00000
 20
26.50000
 30
 0
 40
3.00000
 50
90.00000
 51
180.00000
  0
LINE
  8
Contour
 62
   7
 39
0.100
  6
CONTINUOUS
 10
0.00000
 20
26.50000
 30
 0
 11
0.00000
 21
3.00000
  0
ARC
  8
Contour
 62
   7
 39
0.100
  6
CONTINUOUS
 10
3.00000
 20
3.00000
 30
 0
 40
3.00000
 50
180.00000
 51
270.00000
  0
LINE
  8
Contour
 62
   7
 39
0.100
  6
CONTINUOUS
 10
3.00000
 20
0.00000
 30
 0
 11
105.50000
 21
0.00000
  0
ARC
  8
Contour
 62
   7
 39
0.100
  6
CONTINUOUS
 10
105.50000
 20
3.00000
 30
 0
 40
3.00000
 50
-90.00000
 51
0.00000
  0
LINE
  8
Contour
 62
   7
 39
0.100
  6
CONTINUOUS
 10
108.50000
 20
3.00000
 30
 0
 11
108.50000
 21
26.50000
  0
ARC
  8
Contour
 62
   7
 39
0.100
  6
CONTINUOUS
 10
105.50000
 20
26.50000
 30
 0
 40
3.00000
 50
0.00000
 51
90.00000
  0
LINE
  8
Engraving
 62
   7
 39
0.200
  6
CONTINUOUS
 10
9.23300
 20
21.21000
 30
 0
 11
10.58300
 21
21.21000
  0
LINE
  8
Engraving
 62
   7
 39
0.200
  6
CONTINUOUS
 10
8.96300
 20
20.53500
 30
 0
 11
9.90800
 21
22.96500
  0
LINE
  8
Engraving
 62
   7
 39
0.200
  6
CONTINUOUS
 10
9.90800
 20
22.96500
 30
 0
 11
10.85300
 21
20.53500
  0
ARC
  8
Engraving
 62
   7
 39
0.200
  6
CONTINUOUS
 10
12.29300
 20
22.23100
 30
 0
 40
0.79200
 50
28.92809
 51
181.59114
  0
LINE
  8
Engraving
 62
   7
 39
0.200
  6
CONTINUOUS
 10
11.50100
 20
22.20900
 30
 0
 11
11.50100
 21
21.29100
  0
ARC
  8
Engraving
 62
   7
 39
0.200
  6
CONTINUOUS
 10
12.31200
 20
21.29000
 30
 0
 40
0.81100
 50
179.92935
 51
338.59219
  0
LINE
  8
Engraving
 62
   7
 39
0.200
  6
CONTINUOUS
 10
19.96700
 20
20.53500
 30
 0
 11
19.96700
 21
22.96500
  0
LINE
  8
Engraving
 62
   7
 39
0.200
  6
CONTINUOUS
 10
19.96700
 20
22.96500
 30
 0
 11
20.85800
 21
22.96500
  0
ARC
  8
Engraving
 62
   7
 39
0.200
  6
CONTINUOUS
 10
20.83300
 20
22.35800
 30
 0
 40
0.60800
 50
272.35459
 51
87.64154
  0
LINE
  8
Engraving
 62
   7
 39
0.200
  6
CONTINUOUS
 10
20.85800
 20
21.75000
 30
 0
 11
19.96700
 21
21.75000
  0
LINE
  8
Engraving
 62
   7
 39
0.200
  6
CONTINUOUS
 10
22.07300
 20
22.15500
 30
 0
 11
22.61300
 21
20.53500
  0
LINE
  8
Engraving
 62
   7
 39
0.200
  6
CONTINUOUS
 10
22.61300
 20
20.53500
 30
 0
 11
23.15300
 21
22.15500
  0
LINE
  8
Engraving
 62
   7
 39
0.200
  6
CONTINUOUS
 10
23.15300
 20
22.15500
 30
 0
 11
23.69300
 21
20.53500
  0
LINE
  8
Engraving
 62
   7
 39
0.200
  6
CONTINUOUS
 10
23.69300
 20
20.53500
 30
 0
 11
24.23300
 21
22.15500
  0
LINE
  8
Engraving
 62
   7
 39
0.200
  6
CONTINUOUS
 10
24.88100
 20
20.53500
 30
 0
 11
24.88100
 21
22.15500
  0
LINE
  8
Engraving
 62
   7
 39
0.200
  6
CONTINUOUS
 10
24.88100
 20
22.15500
 30
 0
 11
24.88100
 21
21.61500
  0
ARC
  8
Engraving
 62
   7
 39
0.200
  6
CONTINUOUS
 10
25.47800
 20
21.61500
 30
 0
 40
0.59700
 50
500.71059
 51
180.00000
  0
ARC
  8
Engraving
 62
   7
 39
0.200
  6
CONTINUOUS
 10
25.31300
 20
21.75000
 30
 0
 40
0.38400
 50
399.28941
 51
140.71059
  0
ARC
  8
Engraving
 62
   7
 39
0.200
  6
CONTINUOUS
 10
34.60400
 20
21.34500
 30
 0
 40
0.86400
 50
180.00000
 51
360.00000
  0
LINE
  8
Engraving
 62
   7
 39
0.200
  6
CONTINUOUS
 10
35.46800
 20
21.34500
 30
 0
 11
35.46800
 21
22.15500
  0
ARC
  8
Engraving
 62
   7
 39
0.200
  6
CONTINUOUS
 10
34.60400
 20
22.15500
 30
 0
 40
0.86400
 50
0.00000
 51
180.00000
  0
LINE
  8
Engraving
 62
   7
 39
0.200
  6
CONTINUOUS
 10
33.74000
 20
22.15500
 30
 0
 11
33.74000
 21
21.34500
  0
LINE
  8
Engraving
 62
   7
 39
0.200
  6
CONTINUOUS
 10
36.11600
 20
22.15500
 30
 0
 11
36.11600
 21
21.21000
  0
ARC
  8
Engraving
 62
   7
 39
0.200
  6
CONTINUOUS
 10
36.79100
 20
21.21000
 30
 0
 40
0.67500
 50
180.00000
 51
360.00000
  0
LINE
  8
Engraving
 62
   7
 39
0.200
  6
CONTINUOUS
 10
37.46600
 20
21.21000
 30
 0
 11
37.46600
 21
20.53500
  0
LINE
  8
Engraving
 62
   7
 39
0.200
  6
CONTINUOUS
 10
37.46600
 20
20.53500
 30
 0
 11
37.46600
 21
22.15500
  0
LINE
  8
Engraving
 62
   7
 39
0.200
  6
CONTINUOUS
 10
38.35700
 20
22.96500
 30
 0
 11
38.35700
 21
22.15500
  0
LINE
  8
Engraving
 62
   7
 39
0.200
  6
CONTINUOUS
 10
38.35700
 20
22.15500
 30
 0
 11
38.76200
 21
22.15500
  0
LINE
  8
Engraving
 62
   7
 39
0.200
  6
CONTINUOUS
 10
38.76200
 20
22.15500
 30
 0
 11
38.08700
 21
22.15500
  0
LINE
  8
Engraving
 62
   7
 39
0.200
  6
CONTINUOUS
 10
38.08700
 20
22.15500
 30
 0
 11
38.35700
 21
22.15500
  0
LINE
  8
Engraving
 62
   7
 39
0.200
  6
CONTINUOUS
 10
38.35700
 20
22.15500
 30
 0
 11
38.35700
 21
20.85900
  0
ARC
  8
Engraving
 62
   7
 39
0.200
  6
CONTINUOUS
 10
38.68600
 20
20.85900
 30
 0
 40
0.32900
 50
180.00000
 51
259.67959
  0
LINE
  8
Engraving
 62
   7
 39
0.200
  6
CONTINUOUS
 10
80.49300
 20
21.75000
 30
 0
 11
81.08700
 21
21.75000
  0
LINE
  8
Engraving
 62
   7
 39
0.200
  6
CONTINUOUS
 10
81.08700
 20
21.75000
 30
 0
 11
81.08700
 21
21.34500
  0
ARC
  8
Engraving
 62
   7
 39
0.200
  6
CONTINUOUS
 10
80.22300
 20
21.34500
 30
 0
 40
0.86400
 50
180.00000
 51
0.00000
  0
LINE
  8
Engraving
 62
   7
 39
0.200
  6
CONTINUOUS
 10
79.35900
 20
21.34500
 30
 0
 11
79.35900
 21
22.15500
  0
ARC
  8
Engraving
 62
   7
 39
0.200
  6
CONTINUOUS
 10
80.19100
 20
22.17600
 30
 0
 40
0.83200
 50
31.77901
 51
-178.55414
  0
LINE
  8
Engraving
 62
   7
 39
0.200
  6
CONTINUOUS
 10
83.13900
 20
22.15500
 30
 0
 11
83.13900
 21
21.21000
  0
ARC
  8
Engraving
 62
   7
 39
0.200
  6
CONTINUOUS
 10
82.43700
 20
21.21000
 30
 0
 40
0.70200
 50
180.00000
 51
0.00000
  0
LINE
  8
Engraving
 62
   7
 39
0.200
  6
CONTINUOUS
 10
81.73500
 20
21.21000
 30
 0
 11
81.73500
 21
21.48000
  0
ARC
  8
Engraving
 62
   7
 39
0.200
  6
CONTINUOUS
 10
82.43700
 20
21.48000
 30
 0
 40
0.70200
 50
360.00000
 51
180.00000
  0
LINE
  8
Engraving
 62
   7
 39
0.200
  6
CONTINUOUS
 10
83.13900
 20
21.48000
 30
 0
 11
83.13900
 21
20.83200
  0
ARC
  8
Engraving
 62
   7
 39
0.200
  6
CONTINUOUS
 10
83.53000
 20
20.86800
 30
 0
 40
0.39300
 50
-174.73952
 51
-99.82206
  0
LINE
  8
Engraving
 62
   7
 39
0.200
  6
CONTINUOUS
 10
84.11100
 20
22.96500
 30
 0
 11
84.11100
 21
22.83000
  0
LINE
  8
Engraving
 62
   7
 39
0.200
  6
CONTINUOUS
 10
84.11100
 20
22.15500
 30
 0
 11
84.11100
 21
20.53500
  0
LINE
  8
Engraving
 62
   7
 39
0.200
  6
CONTINUOUS
 10
84.75900
 20
20.53500
 30
 0
 11
84.75900
 21
22.15500
  0
LINE
  8
Engraving
 62
   7
 39
0.200
  6
CONTINUOUS
 10
84.75900
 20
22.15500
 30
 0
 11
84.75900
 21
21.48000
  0
ARC
  8
Engraving
 62
   7
 39
0.200
  6
CONTINUOUS
 10
85.43400
 20
21.48000
 30
 0
 40
0.67500
 50
360.00000
 51
180.00000
  0
LINE
  8
Engraving
 62
   7
 39
0.200
  6
CONTINUOUS
 10
86.10900
 20
21.48000
 30
 0
 11
86.10900
 21
20.53500
  0
LINE
  8
Engraving
 62
   7
 39
0.200
  6
CONTINUOUS
 10
94.88200
 20
22.96500
 30
 0
 11
94.88200
 21
20.53500
  0
LINE
  8
Engraving
 62
   7
 39
0.200
  6
CONTINUOUS
 10
95.53000
 20
20.53500
 30
 0
 11
95.53000
 21
22.15500
  0
LINE
  8
Engraving
 62
   7
 39
0.200
  6
CONTINUOUS
 10
95.53000
 20
22.15500
 30
 0
 11
95.53000
 21
21.48000
  0
ARC
  8
Engraving
 62
   7
 39
0.200
  6
CONTINUOUS
 10
96.20500
 20
21.48000
 30
 0
 40
0.67500
 50
360.00000
 51
180.00000
  0
LINE
  8
Engraving
 62
   7
 39
0.200
  6
CONTINUOUS
 10
96.88000
 20
21.48000
 30
 0
 11
96.88000
 21
20.53500
  0
CIRCLE
  8
Contour
 62
   7
 39
0.100
  6
CONTINUOUS
 10
95.90600
 20
15.55200
 30
 0
 40
3.56800
  0
CIRCLE
  8
Contour
 62
   7
 39
0.100
  6
CONTINUOUS
 10
66.95000
 20
15.55200
 30
 0
 40
3.56800
  0
CIRCLE
  8
Contour
 62
   7
 39
0.100
  6
CONTINUOUS
 10
54.25000
 20
14.13000
 30
 0
 40
1.58700
  0
CIRCLE
  8
Contour
 62
   7
 39
0.100
  6
CONTINUOUS
 10
36.47000
 20
15.55000
 30
 0
 40
3.56800
  0
CIRCLE
  8
Contour
 62
   7
 39
0.100
  6
CONTINUOUS
 10
11.07000
 20
15.55200
 30
 0
 40
3.17500
  0
CIRCLE
  8
Contour
 62
   7
 39
0.100
  6
CONTINUOUS
 10
22.50000
 20
13.75000
 30
 0
 40
3.17500
  0
CIRCLE
  8
Contour
 62
   7
 39
0.100
  6
CONTINUOUS
 10
6.00000
 20
26.45000
 30
 0
 40
1.75000
  0
CIRCLE
  8
Contour
 62
   7
 39
0.100
  6
CONTINUOUS
 10
6.00000
 20
4.95000
 30
 0
 40
1.75000
  0
CIRCLE
  8
Contour
 62
   7
 39
0.100
  6
CONTINUOUS
 10
102.50000
 20
26.45000
 30
 0
 40
1.75000
  0
CIRCLE
  8
Contour
 62
   7
 39
0.100
  6
CONTINUOUS
 10
102.50000
 20
4.95000
 30
 0
 40
1.75000
  0
CIRCLE
  8
Contour
 62
   7
 39
0.100
  6
CONTINUOUS
 10
82.82500
 20
13.75000
 30
 0
 40
3.17500
  0
LINE
  8
Contour
 62
   7
 39
0.100
  6
CONTINUOUS
 10
-1.00000
 20
0.00000
 30
 0
 11
1.00000
 21
0.00000
  0
LINE
  8
Contour
 62
   7
 39
0.100
  6
CONTINUOUS
 10
0.00000
 20
-1.00000
 30
 0
 11
0.00000
 21
1.00000
  0
LINE
  8
Contour
 62
   7
 39
0.100
  6
CONTINUOUS
 10
94.90600
 20
15.55200
 30
 0
 11
96.90600
 21
15.55200
  0
LINE
  8
Contour
 62
   7
 39
0.100
  6
CONTINUOUS
 10
95.90600
 20
14.55200
 30
 0
 11
95.90600
 21
16.55200
  0
LINE
  8
Contour
 62
   7
 39
0.100
  6
CONTINUOUS
 10
65.95000
 20
15.55200
 30
 0
 11
67.95000
 21
15.55200
  0
LINE
  8
Contour
 62
   7
 39
0.100
  6
CONTINUOUS
 10
66.95000
 20
14.55200
 30
 0
 11
66.95000
 21
16.55200
  0
LINE
  8
Contour
 62
   7
 39
0.100
  6
CONTINUOUS
 10
53.25000
 20
14.13000
 30
 0
 11
55.25000
 21
14.13000
  0
LINE
  8
Contour
 62
   7
 39
0.100
  6
CONTINUOUS
 10
54.25000
 20
13.13000
 30
 0
 11
54.25000
 21
15.13000
  0
LINE
  8
Contour
 62
   7
 39
0.100
  6
CONTINUOUS
 10
35.47000
 20
15.55000
 30
 0
 11
37.47000
 21
15.55000
  0
LINE
  8
Contour
 62
   7
 39
0.100
  6
CONTINUOUS
 10
36.47000
 20
14.55000
 30
 0
 11
36.47000
 21
16.55000
  0
LINE
  8
Contour
 62
   7
 39
0.100
  6
CONTINUOUS
 10
10.07000
 20
15.55200
 30
 0
 11
12.07000
 21
15.55200
  0
LINE
  8
Contour
 62
   7
 39
0.100
  6
CONTINUOUS
 10
11.07000
 20
14.55200
 30
 0
 11
11.07000
 21
16.55200
  0
LINE
  8
Contour
 62
   7
 39
0.100
  6
CONTINUOUS
 10
21.50000
 20
13.75000
 30
 0
 11
23.50000
 21
13.75000
  0
LINE
  8
Contour
 62
   7
 39
0.100
  6
CONTINUOUS
 10
22.50000
 20
12.75000
 30
 0
 11
22.50000
 21
14.75000
  0
LINE
  8
Contour
 62
   7
 39
0.100
  6
CONTINUOUS
 10
5.00000
 20
26.45000
 30
 0
 11
7.00000
 21
26.45000
  0
LINE
  8
Contour
 62
   7
 39
0.100
  6
CONTINUOUS
 10
6.00000
 20
25.45000
 30
 0
 11
6.00000
 21
27.45000
  0
LINE
  8
Contour
 62
   7
 39
0.100
  6
CONTINUOUS
 10
5.00000
 20
4.95000
 30
 0
 11
7.00000
 21
4.95000
  0
LINE
  8
Contour
 62
   7
 39
0.100
  6
CONTINUOUS
 10
6.00000
 20
3.95000
 30
 0
 11
6.00000
 21
5.95000
  0
LINE
  8
Contour
 62
   7
 39
0.100
  6
CONTINUOUS
 10
101.50000
 20
26.45000
 30
 0
 11
103.50000
 21
26.45000
  0
LINE
  8
Contour
 62
   7
 39
0.100
  6
CONTINUOUS
 10
102.50000
 20
25.45000
 30
 0
 11
102.50000
 21
27.45000
  0
LINE
  8
Contour
 62
   7
 39
0.100
  6
CONTINUOUS
 10
101.50000
 20
4.95000
 30
 0
 11
103.50000
 21
4.95000
  0
LINE
  8
Contour
 62
   7
 39
0.100
  6
CONTINUOUS
 10
102.50000
 20
3.95000
 30
 0
 11
102.50000
 21
5.95000
  0
LINE
  8
Contour
 62
   7
 39
0.100
  6
CONTINUOUS
 10
81.82500
 20
13.75000
 30
 0
 11
83.82500
 21
13.75000
  0
LINE
  8
Contour
 62
   7
 39
0.100
  6
CONTINUOUS
 10
82.82500
 20
12.75000
 30
 0
 11
82.82500
 21
14.75000
  0
LINE
  8
Contour
 62
   7
 39
0.100
  6
CONTINUOUS
 10
7.96300
 20
21.75000
 30
 0
 11
9.96300
 21
21.75000
  0
LINE
  8
Contour
 62
   7
 39
0.100
  6
CONTINUOUS
 10
8.96300
 20
20.75000
 30
 0
 11
8.96300
 21
22.75000
  0
LINE
  8
Contour
 62
   7
 39
0.100
  6
CONTINUOUS
 10
18.96700
 20
21.75000
 30
 0
 11
20.96700
 21
21.75000
  0
LINE
  8
Contour
 62
   7
 39
0.100
  6
CONTINUOUS
 10
19.96700
 20
20.75000
 30
 0
 11
19.96700
 21
22.75000
  0
LINE
  8
Contour
 62
   7
 39
0.100
  6
CONTINUOUS
 10
32.74000
 20
21.75000
 30
 0
 11
34.74000
 21
21.75000
  0
LINE
  8
Contour
 62
   7
 39
0.100
  6
CONTINUOUS
 10
33.74000
 20
20.75000
 30
 0
 11
33.74000
 21
22.75000
  0
LINE
  8
Contour
 62
   7
 39
0.100
  6
CONTINUOUS
 10
78.35900
 20
21.75000
 30
 0
 11
80.35900
 21
21.75000
  0
LINE
  8
Contour
 62
   7
 39
0.100
  6
CONTINUOUS
 10
79.35900
 20
20.75000
 30
 0
 11
79.35900
 21
22.75000
  0
LINE
  8
Contour
 62
   7
 39
0.100
  6
CONTINUOUS
 10
93.88200
 20
21.75000
 30
 0
 11
95.88200
 21
21.75000
  0
LINE
  8
Contour
 62
   7
 39
0.100
  6
CONTINUOUS
 10
94.88200
 20
20.75000
 30
 0
 11
94.88200
 21
22.75000
  0
ENDSEC
  0
EOF
